<svg xmlns="http://www.w3.org/2000/svg" viewBox="0 0 64 64">
  <style>
    .bg { fill: #26211c; }
    .fg { fill: #f9f8f5; }
    @media (prefers-color-scheme: dark) {
      .bg { fill: #f1efeb; }
      .fg { fill: #131210; }
    }
  </style>
  <rect width="64" height="64" rx="15" class="bg"/>
  <g class="fg" transform="translate(32 33) scale(0.82) translate(-32 -31) translate(-5.75 0)">
    <path d="M 16 14 A 4.2 4.2 0 0 1 24.2 15.5 C 23 27, 24.5 38, 30 48 C 21.5 39.5, 15.5 27, 16 14 Z"/>
    <path d="M 16 11 A 4.4 4.4 0 0 1 24.6 12.5 C 23.3 25.5, 25 39, 31 50 C 21.8 40.5, 15.4 25.5, 16 11 Z" transform="translate(15 0)"/>
    <path d="M 16 14 A 4.2 4.2 0 0 1 24.2 15.5 C 23 27, 24.5 38, 30 48 C 21.5 39.5, 15.5 27, 16 14 Z" transform="translate(30 0)"/>
  </g>
</svg>
